<svg width="35" height="35" viewBox="0 0 35 35" fill="none" xmlns="http://www.w3.org/2000/svg">
<rect x="34.45" y="34.9297" width="34" height="34" rx="17" transform="rotate(-180 34.45 34.9297)" fill="#00A478" fill-opacity="0.2"/>
<path d="M14.2051 15.0452C14.8018 15.0452 15.2966 15.54 15.2966 16.1367V20.8667H20.0266C20.6233 20.8667 21.1182 21.3616 21.1182 21.9583C21.1182 22.555 20.6233 23.0498 20.0266 23.0498H14.2051C13.6084 23.0498 13.1135 22.555 13.1135 21.9583V16.1367C13.1135 15.54 13.6084 15.0452 14.2051 15.0452Z" fill="#39A798"/>
<path d="M21.482 13.5895C21.7586 13.5895 22.0351 13.6914 22.2534 13.9097C22.6755 14.3318 22.6755 15.0303 22.2534 15.4524L14.9765 22.7294C14.5544 23.1514 13.8558 23.1514 13.4337 22.7294C13.0117 22.3073 13.0117 21.6087 13.4337 21.1866L20.7107 13.9097C20.929 13.6914 21.2055 13.5895 21.482 13.5895Z" fill="#39A798"/>
</svg>
